<svg width="25" height="31" viewBox="0 0 25 31" fill="none" xmlns="http://www.w3.org/2000/svg">
<path fill-rule="evenodd" clip-rule="evenodd" d="M3.83753 4.08751C6.13497 1.79008 9.25096 0.49939 12.5 0.49939C15.7491 0.49939 18.8651 1.79008 21.1625 4.08751C23.46 6.38495 24.7507 9.50095 24.7507 12.75C24.7507 15.9991 23.46 19.1151 21.1625 21.4125L12.5 30.075L3.83753 21.4125C2.69988 20.275 1.79744 18.9245 1.18174 17.4382C0.566042 15.9519 0.249146 14.3588 0.249146 12.75C0.249146 11.1412 0.566042 9.54817 1.18174 8.06185C1.79744 6.57553 2.69988 5.22505 3.83753 4.08751ZM12.5 16.25C13.4283 16.25 14.3185 15.8813 14.9749 15.2249C15.6313 14.5685 16 13.6783 16 12.75C16 11.8218 15.6313 10.9315 14.9749 10.2751C14.3185 9.61876 13.4283 9.25001 12.5 9.25001C11.5718 9.25001 10.6815 9.61876 10.0252 10.2751C9.36878 10.9315 9.00003 11.8218 9.00003 12.75C9.00003 13.6783 9.36878 14.5685 10.0252 15.2249C10.6815 15.8813 11.5718 16.25 12.5 16.25Z" fill="white"/>
</svg>
