<svg width="23" height="35" viewBox="0 0 23 35" fill="none" xmlns="http://www.w3.org/2000/svg">
<path d="M0.5625 4.375C0.5625 3.21468 1.02344 2.10188 1.84391 1.28141C2.66438 0.460936 3.77718 0 4.9375 0L18.0625 0C19.2228 0 20.3356 0.460936 21.1561 1.28141C21.9766 2.10188 22.4375 3.21468 22.4375 4.375V30.625C22.4375 31.7853 21.9766 32.8981 21.1561 33.7186C20.3356 34.5391 19.2228 35 18.0625 35H4.9375C3.77718 35 2.66438 34.5391 1.84391 33.7186C1.02344 32.8981 0.5625 31.7853 0.5625 30.625V4.375ZM13.6875 28.4375C13.6875 27.8573 13.457 27.3009 13.0468 26.8907C12.6366 26.4805 12.0802 26.25 11.5 26.25C10.9198 26.25 10.3634 26.4805 9.9532 26.8907C9.54297 27.3009 9.3125 27.8573 9.3125 28.4375C9.3125 29.0177 9.54297 29.5741 9.9532 29.9843C10.3634 30.3945 10.9198 30.625 11.5 30.625C12.0802 30.625 12.6366 30.3945 13.0468 29.9843C13.457 29.5741 13.6875 29.0177 13.6875 28.4375Z" fill="white"/>
</svg>
